<svg xmlns="http://www.w3.org/2000/svg" width="14.03" height="88.033" viewBox="0 0 14.03 88.033"><defs><style>.a{fill:#095797;}</style></defs><g transform="translate(-11 -1)"><g transform="translate(11 75)"><path class="a" d="M4.005,0H3A3,3,0,0,0,0,3v8.011a3,3,0,0,0,3,3.016h8.011a3,3,0,0,0,3.016-3.016v-1a1,1,0,0,0-2,0v1a1,1,0,0,1-1,1H3a1,1,0,0,1-1-1V3A1,1,0,0,1,3,2h1a1,1,0,1,0,0-2Z" transform="translate(0 0.005)"/><path class="a" d="M16.893.616A1,1,0,0,0,15.967,0h-5a1,1,0,1,0,0,2h2.588l-3.3,3.3a1,1,0,1,0,1.4,1.4l3.3-3.3V6a1,1,0,1,0,2,0V1a1.024,1.024,0,0,0-.077-.386Z" transform="translate(-2.94 0.005)"/></g><g transform="translate(11 1)"><path class="a" d="M4.005,0H3A3,3,0,0,0,0,3v8.011a3,3,0,0,0,3,3.016h8.011a3,3,0,0,0,3.016-3.016v-1a1,1,0,0,0-2,0v1a1,1,0,0,1-1,1H3a1,1,0,0,1-1-1V3A1,1,0,0,1,3,2h1a1,1,0,1,0,0-2Z" transform="translate(0 0.005)"/><path class="a" d="M16.893.616A1,1,0,0,0,15.967,0h-5a1,1,0,1,0,0,2h2.588l-3.3,3.3a1,1,0,1,0,1.4,1.4l3.3-3.3V6a1,1,0,1,0,2,0V1a1.024,1.024,0,0,0-.077-.386Z" transform="translate(-2.94 0.005)"/></g></g></svg>