<svg xmlns="http://www.w3.org/2000/svg" width="14.211" height="14.215" viewBox="0 0 14.211 14.215"><defs><style>.a{fill:#095797;}</style></defs><path class="a" d="M4.057,0H3.041A3.041,3.041,0,0,0,0,3.04v8.115A3.041,3.041,0,0,0,3.041,14.21h8.115a3.041,3.041,0,0,0,3.055-3.055V10.138a1.016,1.016,0,0,0-2.025,0v1.016a1.016,1.016,0,0,1-1.016,1.016H3.041a1.016,1.016,0,0,1-1.016-1.016V3.04A1.016,1.016,0,0,1,3.041,2.024H4.057A1.016,1.016,0,1,0,4.057,0Z" transform="translate(0 0.005)"/><path class="a" d="M16.984.624A1.016,1.016,0,0,0,16.046,0H10.98a1.016,1.016,0,1,0,0,2.025H13.6l-3.34,3.34a1.016,1.016,0,1,0,1.421,1.421l3.34-3.34V6.081a1.016,1.016,0,1,0,2.025,0V1.015A1.037,1.037,0,0,0,16.97.624Z" transform="translate(-2.851 0.005)"/></svg>